<svg width="23" height="20" viewBox="0 0 23 20" fill="none" xmlns="http://www.w3.org/2000/svg">
<path d="M18.0999 0.0556641H4.89988C2.47869 0.0556641 0.5 1.76543 0.5 3.85556V15.2556C0.5 17.3457 2.47869 19.0557 4.89988 19.0557H18.0997C20.5188 19.0557 22.4998 17.3457 22.4998 15.2556V3.85556C22.5 1.76543 20.519 0.0556641 18.0999 0.0556641ZM5.84897 4.73687C7.04847 4.73687 8.01956 5.57697 8.01956 6.61415C8.01956 7.65187 7.04847 8.48964 5.84897 8.48964C4.64595 8.48964 3.67217 7.65097 3.67217 6.61325C3.67217 5.57607 4.64699 4.73687 5.84897 4.73687ZM7.40882 8.17502V8.85836C7.24825 8.82037 7.0717 8.79386 6.87877 8.77343V8.47763C7.07253 8.39683 7.24825 8.29471 7.40882 8.17502ZM11.0938 12.1283C10.9718 12.1283 10.8488 12.1032 10.7355 12.0475L8.24921 11.0288L8.43405 16.6361L3.77237 16.6807L3.45019 11.0288C3.45019 11.0288 2.99048 9.19644 5.63882 8.92931H5.84669H6.05456C7.41877 8.92931 7.86791 9.16132 8.78734 9.65008L10.832 10.6373L12.2817 8.5828C12.4941 8.2836 12.9455 8.18846 13.2957 8.36996C13.6438 8.55306 13.7534 8.94471 13.5428 9.24481L11.724 11.823C11.5859 12.0197 11.3428 12.1283 11.0938 12.1283ZM9.49123 9.76421H11.1863L10.8621 10.2216H10.4389L9.49123 9.76421ZM13.3154 8.13615L15.0923 5.46105L15.3468 5.58772L13.5733 8.26389L13.3154 8.13615ZM19.578 10.2216H13.1221L13.4445 9.76421H19.0498V2.88753H7.40882V5.05058C7.24825 4.9318 7.07253 4.82931 6.87877 4.74941V2.43066H19.578V10.2216Z" fill="black"/>
</svg>
